<svg width="21" height="20" viewBox="0 0 21 20" fill="none" xmlns="http://www.w3.org/2000/svg">
<g id="u:sign-out-alt">
<path id="Vector" d="M10.9915 10.8333L9.07484 12.7417C8.99673 12.8191 8.93474 12.9113 8.89243 13.0128C8.85012 13.1144 8.82834 13.2233 8.82834 13.3333C8.82834 13.4433 8.85012 13.5523 8.89243 13.6538C8.93474 13.7554 8.99673 13.8475 9.07484 13.925C9.15231 14.0031 9.24447 14.0651 9.34602 14.1074C9.44757 14.1497 9.55649 14.1715 9.6665 14.1715C9.77651 14.1715 9.88544 14.1497 9.98698 14.1074C10.0885 14.0651 10.1807 14.0031 10.2582 13.925L13.5915 10.5917C13.6674 10.5124 13.7268 10.419 13.7665 10.3167C13.8499 10.1138 13.8499 9.88621 13.7665 9.68333C13.7268 9.58104 13.6674 9.48758 13.5915 9.40833L10.2582 6.075C10.1805 5.9973 10.0882 5.93566 9.98671 5.89361C9.88519 5.85156 9.77639 5.82992 9.6665 5.82992C9.55662 5.82992 9.44781 5.85156 9.3463 5.89361C9.24478 5.93566 9.15254 5.9973 9.07484 6.075C8.99714 6.1527 8.9355 6.24494 8.89345 6.34646C8.8514 6.44797 8.82976 6.55678 8.82976 6.66666C8.82976 6.77655 8.8514 6.88535 8.89345 6.98687C8.9355 7.08839 8.99714 7.18063 9.07484 7.25833L10.9915 9.16666H2.99984C2.77882 9.16666 2.56686 9.25446 2.41058 9.41074C2.2543 9.56702 2.1665 9.77898 2.1665 10C2.1665 10.221 2.2543 10.433 2.41058 10.5893C2.56686 10.7455 2.77882 10.8333 2.99984 10.8333H10.9915ZM10.4998 1.66666C8.94241 1.65971 7.41421 2.08934 6.08856 2.90682C4.76291 3.72431 3.69288 4.89692 2.99984 6.29166C2.90038 6.49058 2.88402 6.72085 2.95434 6.93183C3.02467 7.14281 3.17593 7.31721 3.37484 7.41666C3.57375 7.51612 3.80402 7.53248 4.015 7.46216C4.22598 7.39183 4.40038 7.24058 4.49984 7.04166C5.02666 5.97776 5.82803 5.07385 6.82113 4.42332C7.81423 3.77279 8.96302 3.39926 10.1488 3.34132C11.3346 3.28339 12.5143 3.54314 13.5661 4.09376C14.6179 4.64437 15.5036 5.46585 16.1316 6.47333C16.7596 7.4808 17.1072 8.6377 17.1385 9.82448C17.1698 11.0113 16.8836 12.1849 16.3094 13.224C15.7353 14.2631 14.8941 15.1301 13.8728 15.7354C12.8514 16.3406 11.687 16.6621 10.4998 16.6667C9.25724 16.672 8.0383 16.327 6.98291 15.671C5.92753 15.0151 5.07847 14.0749 4.53317 12.9583C4.43371 12.7594 4.25931 12.6082 4.04834 12.5378C3.83736 12.4675 3.60708 12.4839 3.40817 12.5833C3.20926 12.6828 3.058 12.8572 2.98768 13.0682C2.91735 13.2791 2.93371 13.5094 3.03317 13.7083C3.69386 15.0379 4.69777 16.1669 5.94106 16.9784C7.18435 17.7899 8.62188 18.2545 10.1049 18.3242C11.588 18.3938 13.0627 18.066 14.3766 17.3746C15.6905 16.6832 16.7958 15.6533 17.5782 14.3915C18.3606 13.1297 18.7917 11.6818 18.8269 10.1975C18.8621 8.71322 18.5001 7.24649 17.7784 5.94902C17.0566 4.65156 16.0014 3.57047 14.7217 2.81758C13.4421 2.0647 11.9845 1.66736 10.4998 1.66666Z" fill="#4C8AB1"/>
</g>
</svg>
