<svg width="8" height="14" viewBox="0 0 8 14" fill="none" xmlns="http://www.w3.org/2000/svg">
<mask id="path-1-inside-1_620_4555" fill="white">
<path d="M6.92308 14L8 12.8333L2.30769 7L8 1.16667L6.92308 9.41476e-08L-6.11959e-07 7L6.92308 14Z"/>
</mask>
<path d="M6.92308 14L8 12.8333L2.30769 7L8 1.16667L6.92308 9.41476e-08L-6.11959e-07 7L6.92308 14Z" fill="#484848"/>
<path d="M6.92308 14L-5.16397 25.9542L7.34698 38.6042L19.4147 25.5308L6.92308 14ZM8 12.8333L20.4917 24.3641L31.4355 12.5082L20.167 0.96049L8 12.8333ZM2.30769 7L-9.8593 -4.87284L-21.4451 7L-9.8593 18.8728L2.30769 7ZM8 1.16667L20.167 13.0395L31.4355 1.49177L20.4917 -10.3641L8 1.16667ZM6.92308 9.41476e-08L19.4147 -11.5308L7.34697 -24.6042L-5.16397 -11.9542L6.92308 9.41476e-08ZM-6.11959e-07 7L-12.087 -4.95422L-23.9099 7L-12.087 18.9542L-6.11959e-07 7ZM19.4147 25.5308L20.4917 24.3641L-4.49166 1.30257L-5.56858 2.46924L19.4147 25.5308ZM20.167 0.96049L14.4747 -4.87284L-9.8593 18.8728L-4.16699 24.7062L20.167 0.96049ZM14.4747 18.8728L20.167 13.0395L-4.16699 -10.7062L-9.8593 -4.87284L14.4747 18.8728ZM20.4917 -10.3641L19.4147 -11.5308L-5.56858 11.5308L-4.49166 12.6974L20.4917 -10.3641ZM-5.16397 -11.9542L-12.087 -4.95422L12.087 18.9542L19.0101 11.9542L-5.16397 -11.9542ZM-12.087 18.9542L-5.16397 25.9542L19.0101 2.04578L12.087 -4.95422L-12.087 18.9542Z" fill="black" mask="url(#path-1-inside-1_620_4555)"/>
</svg>
