<svg width="48" height="48" viewBox="0 0 48 48" fill="none" xmlns="http://www.w3.org/2000/svg">
<g filter="url(#filter0_d_511_3226)">
<rect x="3.0625" y="2" width="42.047" height="42" rx="8" fill="#FFDADA"/>
<rect x="3.5625" y="2.5" width="41.047" height="41" rx="7.5" stroke="#FFDFDF"/>
</g>
<g clip-path="url(#clip0_511_3226)">
<path d="M16.3629 16.25H20.0813L21.2826 14.675C21.4425 14.4654 21.6498 14.2953 21.8881 14.1782C22.1264 14.061 22.3892 14 22.6556 14H25.5159C25.7824 14 26.0452 14.061 26.2835 14.1782C26.5218 14.2953 26.7291 14.4654 26.8889 14.675L28.0903 16.25H31.8087C31.8846 16.25 31.9573 16.2796 32.0109 16.3324C32.0646 16.3851 32.0947 16.4567 32.0947 16.5312V17.0938C32.0947 17.1683 32.0646 17.2399 32.0109 17.2926C31.9573 17.3454 31.8846 17.375 31.8087 17.375H31.1329L29.9459 30.4637C29.9075 30.8833 29.7109 31.2737 29.3946 31.558C29.0783 31.8423 28.6654 31.9999 28.2368 32H19.9347C19.5062 31.9999 19.0932 31.8423 18.777 31.558C18.4607 31.2737 18.264 30.8833 18.2257 30.4637L17.0386 17.375H16.3629C16.287 17.375 16.2143 17.3454 16.1606 17.2926C16.107 17.2399 16.0768 17.1683 16.0768 17.0938V16.5312C16.0768 16.4567 16.107 16.3851 16.1606 16.3324C16.2143 16.2796 16.287 16.25 16.3629 16.25ZM25.9736 15.35C25.9201 15.2803 25.851 15.2238 25.7716 15.1848C25.6922 15.1457 25.6047 15.1253 25.5159 15.125H22.6556C22.5668 15.1253 22.4794 15.1457 22.4 15.1848C22.3206 15.2238 22.2514 15.2803 22.198 15.35L21.5115 16.25H26.6601L25.9736 15.35ZM19.3662 30.3617C19.378 30.5019 19.443 30.6325 19.5484 30.7277C19.6538 30.8228 19.7917 30.8754 19.9347 30.875H28.2368C28.3799 30.8754 28.5178 30.8228 28.6232 30.7277C28.7285 30.6325 28.7936 30.5019 28.8053 30.3617L29.9852 17.375H18.1863L19.3662 30.3617Z" fill="#DF0404"/>
</g>
<defs>
<filter id="filter0_d_511_3226" x="0.7625" y="0.7" width="46.6469" height="46.6" filterUnits="userSpaceOnUse" color-interpolation-filters="sRGB">
<feFlood flood-opacity="0" result="BackgroundImageFix"/>
<feColorMatrix in="SourceAlpha" type="matrix" values="0 0 0 0 0 0 0 0 0 0 0 0 0 0 0 0 0 0 127 0" result="hardAlpha"/>
<feOffset dy="1"/>
<feGaussianBlur stdDeviation="1.15"/>
<feComposite in2="hardAlpha" operator="out"/>
<feColorMatrix type="matrix" values="0 0 0 0 0 0 0 0 0 0 0 0 0 0 0 0 0 0 0.21 0"/>
<feBlend mode="normal" in2="BackgroundImageFix" result="effect1_dropShadow_511_3226"/>
<feBlend mode="normal" in="SourceGraphic" in2="effect1_dropShadow_511_3226" result="shape"/>
</filter>
<clipPath id="clip0_511_3226">
<rect width="16.0179" height="18" fill="white" transform="matrix(-1 0 0 1 32.0947 14)"/>
</clipPath>
</defs>
</svg>
