<svg width="48" height="48" viewBox="0 0 48 48" fill="none" xmlns="http://www.w3.org/2000/svg">
<g filter="url(#filter0_d_511_3230)">
<rect x="3" y="2" width="42.047" height="42" rx="8" fill="white"/>
<rect x="3.5" y="2.5" width="41.047" height="41" rx="7.5" stroke="white"/>
</g>
<path d="M34.3394 16.0878L32.9458 14.6958C32.4818 14.2319 31.8733 14 31.2648 14C30.6562 14 30.0477 14.2319 29.5833 14.6954L16.4921 27.772L16.0203 32.0107C15.9608 32.5443 16.3817 33 16.9044 33C16.9375 33 16.9706 32.9981 17.0044 32.9944L21.2448 32.5265L34.3397 19.4462C35.2681 18.5188 35.2681 17.0151 34.3394 16.0878ZM20.699 31.3924L17.2429 31.775L17.6278 28.3175L27.4315 18.5247L30.5065 21.5963L20.699 31.3924ZM33.499 18.6068L31.3469 20.7565L28.2719 17.685L30.424 15.5352C30.6484 15.3111 30.9471 15.1875 31.2648 15.1875C31.5824 15.1875 31.8807 15.3111 32.1055 15.5352L33.499 16.9272C33.9623 17.3903 33.9623 18.1436 33.499 18.6068Z" fill="#4C8AB1"/>
<defs>
<filter id="filter0_d_511_3230" x="0.7" y="0.7" width="46.6469" height="46.6" filterUnits="userSpaceOnUse" color-interpolation-filters="sRGB">
<feFlood flood-opacity="0" result="BackgroundImageFix"/>
<feColorMatrix in="SourceAlpha" type="matrix" values="0 0 0 0 0 0 0 0 0 0 0 0 0 0 0 0 0 0 127 0" result="hardAlpha"/>
<feOffset dy="1"/>
<feGaussianBlur stdDeviation="1.15"/>
<feComposite in2="hardAlpha" operator="out"/>
<feColorMatrix type="matrix" values="0 0 0 0 0 0 0 0 0 0 0 0 0 0 0 0 0 0 0.21 0"/>
<feBlend mode="normal" in2="BackgroundImageFix" result="effect1_dropShadow_511_3230"/>
<feBlend mode="normal" in="SourceGraphic" in2="effect1_dropShadow_511_3230" result="shape"/>
</filter>
</defs>
</svg>
